<?xml version="1.0" encoding="UTF-8" standalone="no"?>
<!-- Generator: Adobe Illustrator 19.0.0, SVG Export Plug-In . SVG Version: 6.00 Build 0)  -->

<svg
   version="1.1"
   id="Capa_1"
   x="0px"
   y="0px"
   viewBox="0 0 63.999998 79.999998"
   xml:space="preserve"
   sodipodi:docname="calendar-svgrepo-com.svg"
   width="64"
   height="80"
   inkscape:version="1.1.1 (3bf5ae0d25, 2021-09-20)"
   xmlns:inkscape="http://www.inkscape.org/namespaces/inkscape"
   xmlns:sodipodi="http://sodipodi.sourceforge.net/DTD/sodipodi-0.dtd"
   xmlns="http://www.w3.org/2000/svg"
   xmlns:svg="http://www.w3.org/2000/svg"><defs
   id="defs1830" /><sodipodi:namedview
   id="namedview1828"
   pagecolor="#ffffff"
   bordercolor="#666666"
   borderopacity="1.0"
   inkscape:pageshadow="2"
   inkscape:pageopacity="0.0"
   inkscape:pagecheckerboard="0"
   showgrid="false"
   width="64px"
   inkscape:zoom="5.0474587"
   inkscape:cx="82.318652"
   inkscape:cy="99.257869"
   inkscape:window-width="1918"
   inkscape:window-height="2054"
   inkscape:window-x="-10"
   inkscape:window-y="0"
   inkscape:window-maximized="0"
   inkscape:current-layer="Capa_1" />
<g
   id="g1795"
   transform="matrix(0.10943422,0,0,0.10943422,6.5379435,13.828352)"
   style="fill:#536d2b;fill-opacity:1">
	<g
   id="g1793"
   style="fill:#536d2b;fill-opacity:1">
		<path
   d="m 177.8,238.1 c 0,4.5 -3.6,8.1 -8.1,8.1 h -30.4 c -4.5,0 -8.1,-3.6 -8.1,-8.1 v -30.4 c 0,-4.5 3.6,-8.1 8.1,-8.1 h 30.4 c 4.5,0 8.1,3.6 8.1,8.1 z m 63.5,-30.3 c 0,-4.5 -3.6,-8.1 -8.1,-8.1 h -30.4 c -4.5,0 -8.1,3.6 -8.1,8.1 v 30.4 c 0,4.5 3.6,8.1 8.1,8.1 h 30.4 c 4.5,0 8.1,-3.6 8.1,-8.1 z m 63.5,0 c 0,-4.5 -3.6,-8.1 -8.1,-8.1 h -30.4 c -4.5,0 -8.1,3.6 -8.1,8.1 v 30.4 c 0,4.5 3.6,8.1 8.1,8.1 h 30.4 c 4.5,0 8.1,-3.6 8.1,-8.1 z m -127,61.8 c 0,-4.5 -3.6,-8.1 -8.1,-8.1 h -30.4 c -4.5,0 -8.1,3.6 -8.1,8.1 V 300 c 0,4.5 3.6,8.1 8.1,8.1 h 30.4 c 4.5,0 8.1,-3.6 8.1,-8.1 z m 63.5,0 c 0,-4.5 -3.6,-8.1 -8.1,-8.1 h -30.4 c -4.5,0 -8.1,3.6 -8.1,8.1 V 300 c 0,4.5 3.6,8.1 8.1,8.1 h 30.4 c 4.5,0 8.1,-3.6 8.1,-8.1 z m 55.4,-8.1 h -30.4 c -4.5,0 -8.1,3.6 -8.1,8.1 V 300 c 0,4.5 3.6,8.1 8.1,8.1 h 30.4 c 4.5,0 8.1,-3.6 8.1,-8.1 v -30.4 c 0,-4.5 -3.6,-8.1 -8.1,-8.1 z M 106.1,323.3 H 75.8 c -4.5,0 -8.1,3.6 -8.1,8.1 v 30.4 c 0,4.5 3.6,8.1 8.1,8.1 h 30.4 c 4.5,0 8.1,-3.6 8.1,-8.1 v -30.4 c 0,-4.5 -3.7,-8.1 -8.2,-8.1 z m 8.2,-53.7 c 0,-4.5 -3.6,-8.1 -8.1,-8.1 H 75.8 c -4.5,0 -8.1,3.6 -8.1,8.1 V 300 c 0,4.5 3.6,8.1 8.1,8.1 h 30.4 c 4.5,0 8.1,-3.6 8.1,-8.1 z m 118.9,53.7 h -30.4 c -4.5,0 -8.1,3.6 -8.1,8.1 v 30.4 c 0,4.5 3.6,8.1 8.1,8.1 h 30.4 c 4.5,0 8.1,-3.6 8.1,-8.1 v -30.4 c 0,-4.5 -3.6,-8.1 -8.1,-8.1 z m -63.5,0 h -30.4 c -4.5,0 -8.1,3.6 -8.1,8.1 v 30.4 c 0,4.5 3.6,8.1 8.1,8.1 h 30.4 c 4.5,0 8.1,-3.6 8.1,-8.1 v -30.4 c 0,-4.5 -3.6,-8.1 -8.1,-8.1 z m 190.5,-77 c 4.5,0 8.1,-3.6 8.1,-8.1 v -30.4 c 0,-4.5 -3.6,-8.1 -8.1,-8.1 h -30.4 c -4.5,0 -8.1,3.6 -8.1,8.1 v 30.4 c 0,4.5 3.6,8.1 8.1,8.1 z M 47.7,435.9 h 230.7 c -3.7,-11.6 -5.8,-24 -5.9,-36.8 H 47.7 c -6,0 -10.8,-4.9 -10.8,-10.8 V 171 h 361.7 v 101.1 c 12.8,0.1 25.2,2 36.8,5.7 V 94.9 C 435.4,68.6 414,47.2 387.7,47.2 H 334.3 V 17.8 c 0,-9.6 -7.8,-17.4 -17.4,-17.4 h -27.1 c -9.6,0 -17.4,7.8 -17.4,17.4 V 47.3 H 163 V 17.8 C 163,8.2 155.2,0.4 145.6,0.4 h -27.1 c -9.6,0 -17.4,7.8 -17.4,17.4 V 47.3 H 47.7 C 21.4,47.3 0,68.7 0,95 v 293.3 c 0,26.2 21.4,47.6 47.7,47.6 z m 441.5,-38.2 c 0,50.3 -40.8,91.1 -91.1,91.1 -50.3,0 -91.1,-40.8 -91.1,-91.1 0,-50.3 40.8,-91.1 91.1,-91.1 50.3,0 91.1,40.8 91.1,91.1 z m -45.1,-23.6 c 0,-2.9 -1.1,-5.7 -3.2,-7.7 -4.3,-4.3 -11.2,-4.3 -15.5,0 L 385.8,406 370.6,390.8 c -4.3,-4.3 -11.2,-4.3 -15.5,0 -2.1,2.1 -3.2,4.8 -3.2,7.7 0,2.9 1.1,5.7 3.2,7.7 l 22.9,22.9 c 4.3,4.3 11.2,4.3 15.5,0 l 47.3,-47.3 c 2.2,-2 3.3,-4.8 3.3,-7.7 z"
   id="path1791"
   style="fill:#536d2b;fill-opacity:1" />
	</g>
</g>
<g
   id="g1797">
</g>
<g
   id="g1799">
</g>
<g
   id="g1801">
</g>
<g
   id="g1803">
</g>
<g
   id="g1805">
</g>
<g
   id="g1807">
</g>
<g
   id="g1809">
</g>
<g
   id="g1811">
</g>
<g
   id="g1813">
</g>
<g
   id="g1815">
</g>
<g
   id="g1817">
</g>
<g
   id="g1819">
</g>
<g
   id="g1821">
</g>
<g
   id="g1823">
</g>
<g
   id="g1825">
</g>
</svg>
