<?xml version="1.0" encoding="UTF-8" standalone="no"?>
<svg
   version="1.1"
   id="svg2"
   xml:space="preserve"
   width="225"
   height="80"
   viewBox="0 0 225 80.000007"
   sodipodi:docname="logo.svg"
   inkscape:version="1.1.1 (3bf5ae0d25, 2021-09-20)"
   xmlns:inkscape="http://www.inkscape.org/namespaces/inkscape"
   xmlns:sodipodi="http://sodipodi.sourceforge.net/DTD/sodipodi-0.dtd"
   xmlns:xlink="http://www.w3.org/1999/xlink"
   xmlns="http://www.w3.org/2000/svg"
   xmlns:svg="http://www.w3.org/2000/svg"
   xmlns:rdf="http://www.w3.org/1999/02/22-rdf-syntax-ns#"
   xmlns:cc="http://creativecommons.org/ns#"
   xmlns:dc="http://purl.org/dc/elements/1.1/"><metadata
     id="metadata8"><rdf:RDF><cc:Work
         rdf:about=""><dc:format>image/svg+xml</dc:format><dc:type
           rdf:resource="http://purl.org/dc/dcmitype/StillImage" /></cc:Work></rdf:RDF></metadata><defs
     id="defs6"><linearGradient
       inkscape:collect="always"
       id="linearGradient5696"><stop
         style="stop-color:#000000;stop-opacity:1;"
         offset="0"
         id="stop5692" /><stop
         style="stop-color:#000000;stop-opacity:0;"
         offset="1"
         id="stop5694" /></linearGradient><radialGradient
       fx="0"
       fy="0"
       cx="0"
       cy="0"
       r="1"
       gradientUnits="userSpaceOnUse"
       gradientTransform="matrix(-34.28801,36.769394,36.769394,34.28801,299.94434,466.8042)"
       spreadMethod="pad"
       id="radialGradient30"><stop
         style="stop-opacity:1;stop-color:#b8e3ec"
         offset="0"
         id="stop24" /><stop
         style="stop-opacity:1;stop-color:#51c5cf"
         offset="0.399994"
         id="stop26" /><stop
         style="stop-opacity:1;stop-color:#237ba3"
         offset="1"
         id="stop28" /></radialGradient><linearGradient
       inkscape:collect="always"
       xlink:href="#linearGradient5696"
       id="linearGradient5698"
       x1="336.74789"
       y1="-445.37473"
       x2="517.74115"
       y2="-445.37473"
       gradientUnits="userSpaceOnUse" /><linearGradient
       inkscape:collect="always"
       xlink:href="#linearGradient5688"
       id="linearGradient5690"
       x1="287.78879"
       y1="446.58099"
       x2="334.53799"
       y2="446.58099"
       gradientUnits="userSpaceOnUse" /><linearGradient
       inkscape:collect="always"
       id="linearGradient5688"><stop
         style="stop-color:#51ad4c;stop-opacity:1;"
         offset="0"
         id="stop5684" /><stop
         style="stop-color:#51ad4c;stop-opacity:0;"
         offset="1"
         id="stop5686" /></linearGradient><linearGradient
       inkscape:collect="always"
       xlink:href="#linearGradient5688"
       id="linearGradient27040"
       gradientUnits="userSpaceOnUse"
       x1="287.78879"
       y1="446.58099"
       x2="334.53799"
       y2="446.58099" /></defs><sodipodi:namedview
     pagecolor="#ffffff"
     bordercolor="#666666"
     borderopacity="1"
     objecttolerance="10"
     gridtolerance="10"
     guidetolerance="10"
     inkscape:pageopacity="0"
     inkscape:pageshadow="2"
     inkscape:window-width="1920"
     inkscape:window-height="1001"
     id="namedview4"
     inkscape:pagecheckerboard="0"
     showgrid="false"
     inkscape:zoom="2.6404883"
     inkscape:cx="137.47457"
     inkscape:cy="-37.682424"
     inkscape:window-x="-9"
     inkscape:window-y="-9"
     inkscape:window-maximized="1"
     inkscape:current-layer="g20" /><g
     id="g10"
     inkscape:groupmode="layer"
     inkscape:label="dot-globe-seeklogo.com"
     transform="matrix(1.3333333,0,0,-1.3333333,0,1122.5197)"><g
       id="g12"
       transform="matrix(1.8455321,0,0,1.8455321,-523.3965,-30.21962)"><g
         id="g14"><g
           id="g20"><text
             xml:space="preserve"
             style="font-style:normal;font-variant:normal;font-weight:normal;font-stretch:normal;font-size:7.41371px;line-height:1.25;font-family:'StempelGaramond Roman';-inkscape-font-specification:'StempelGaramond Roman, ';fill:#3f863d;fill-opacity:1;stroke:none;stroke-width:0.0992912"
             x="300.02966"
             y="-451.86279"
             id="text5294"
             transform="scale(1,-1)"><tspan
               sodipodi:role="line"
               id="tspan5292"
               style="font-style:normal;font-variant:normal;font-weight:normal;font-stretch:normal;font-size:7.41371px;font-family:'StempelGaramond Roman';-inkscape-font-specification:'StempelGaramond Roman, ';fill:#3f863d;fill-opacity:1;stroke-width:0.0992912"
               x="300.02966"
               y="-451.86279">Eötvös Loránd Stadion</tspan></text><g
             id="g22"
             style="fill:url(#linearGradient5690);fill-opacity:1;fill-rule:nonzero"
             transform="matrix(0.31189193,0,0,0.31189193,196.32454,315.47321)"><path
               d="m 311.361,470.096 c -0.082,0 -0.088,-0.005 -0.111,-0.025 v 0 c 0.154,-0.065 0.838,-0.088 1.561,-0.114 v 0 c 0.371,-0.013 0.762,-0.027 1.132,-0.051 v 0 c 0.173,-0.011 0.401,-0.026 0.573,-0.046 v 0 c -0.598,0.076 -1.364,0.144 -1.946,0.196 v 0 l -1.144,0.04 c -0.027,0 -0.047,0 -0.065,0 m 3.156,-0.237 -10e-4,0.001 z m 0.091,-0.011 c -0.028,0.003 -0.059,0.008 -0.091,0.011 v 0 z m -4.68,-0.174 h -0.002 -0.002 -0.003 -0.002 -0.003 -0.002 c -1.019,0 -2.251,-0.498 -2.465,-1.014 v 0 c -0.06,-0.145 -0.221,-0.531 1.949,0.363 v 0 c 0.164,0.067 0.665,0.273 0.845,0.421 v 0 c 0.221,0.18 -0.065,0.213 -0.187,0.226 v 0 c -0.04,0.002 -0.083,0.003 -0.127,0.004 v 0 z m 4.892,-0.19 c -0.257,-0.223 1.215,-0.504 2.553,-0.677 v 0 c 1.044,-0.134 1.114,-0.074 1.147,-0.045 v 0 c 0,0.05 -0.061,0.088 -0.292,0.187 v 0 c -0.944,0.364 -2.248,0.621 -2.949,0.621 v 0 c -0.226,0 -0.391,-0.027 -0.459,-0.086 m -8.076,0.045 c -0.965,-0.16 -1.654,-0.522 -1.713,-0.901 v 0 c -0.014,-0.083 -0.078,-0.778 1.75,0.459 v 0 c 0.077,0.053 0.312,0.212 0.393,0.317 v 0 c 0.093,0.12 -0.01,0.149 -0.148,0.149 v 0 c -0.096,0 -0.21,-0.014 -0.282,-0.024 m 2.666,-1.309 c -0.203,-0.302 0.512,-0.261 2.121,0.119 v 0 c 0.459,0.109 0.73,0.191 0.852,0.231 v 0 c 0.871,0.286 0.569,0.434 0.469,0.483 v 0 c -0.209,0.07 -0.457,0.102 -0.721,0.102 v 0 c -1.07,0 -2.43,-0.506 -2.721,-0.935 m -6.259,0.396 c -0.493,-0.182 -1.069,-0.447 -1.016,-0.676 v 0 c 0.031,-0.132 0.377,-0.339 0.834,-0.187 v 0 c 0.367,0.123 0.778,0.567 0.907,0.768 v 0 c 0.01,0.015 0.022,0.037 0.032,0.052 v 0 c 0.072,0.136 0.042,0.205 -0.101,0.205 v 0 c -0.127,0 -0.344,-0.054 -0.656,-0.162 m 19.278,-1.367 c -0.045,0.024 -0.105,0.056 -0.15,0.08 v 0 c -0.605,0.322 -1.382,0.69 -1.983,0.94 v 0 c 0.646,-0.296 1.504,-0.691 2.133,-1.02 m -4.364,0.828 c -0.271,-10e-4 -0.488,-0.044 -0.613,-0.132 v 0 c -0.471,-0.333 1.008,-0.919 2.259,-1.214 v 0 c 0.48,-0.113 0.795,-0.148 0.907,-0.158 v 0 c 0.439,-0.039 0.895,-0.004 0.581,0.388 v 0 c -0.664,0.656 -2.197,1.116 -3.121,1.116 v 0 z m -7.228,-0.774 c -0.405,-0.418 1.542,-0.3 2.15,-0.254 v 0 c 0.831,0.062 2.185,0.229 1.9,0.643 v 0 c -0.251,0.22 -0.739,0.309 -1.296,0.309 v 0 c -1.072,0 -2.395,-0.33 -2.754,-0.698 m -10.147,0.085 c -0.278,0 -0.739,-0.225 -1.121,-0.445 v 0 c -0.097,-0.057 -0.274,-0.164 -0.397,-0.266 v 0 c -0.209,-0.176 -0.189,-0.263 0.064,-0.284 v 0 c 1.234,-0.106 1.942,0.589 1.653,0.923 v 0 c -0.043,0.05 -0.111,0.071 -0.195,0.072 v 0 z m 3.027,-2.774 c 0.018,0.012 0.026,0.02 0.111,0.116 v 0 c 0.295,0.33 0.546,0.597 1.1,1.139 v 0 c 0.823,0.806 1.32,1.292 1.087,1.354 v 0 c -0.794,-0.047 -2.178,-2.295 -2.298,-2.609 m 0.859,2.548 c -0.38,-0.099 -0.633,-0.718 -0.644,-0.744 v 0 c -0.255,-0.631 -0.409,-1.76 -0.385,-1.804 v 0 c 0.233,0.417 0.425,0.854 0.654,1.273 v 0 c 0.344,0.627 0.699,1.275 0.381,1.275 v 0 z m -0.696,-2.576 c 0.548,0.362 1.083,0.745 1.639,1.094 v 0 c 1.313,0.821 1.858,1.16 1.711,1.275 v 0 c -0.018,0.004 -0.038,0.006 -0.06,0.006 v 0 c -0.752,-0.001 -3.121,-2.029 -3.29,-2.375 m -0.791,2.189 v 0 h -10e-4 -0.002 c -0.022,-10e-4 -0.047,-0.004 -0.072,-0.011 v 0 c -0.217,-0.101 -0.301,-0.338 -0.247,-0.706 v 0 c 0.06,-0.397 0.567,-1.489 0.573,-1.497 v 0 c 0.001,0.002 0.008,0.004 0.011,0.005 v 0 c 0.045,0.386 0.028,0.776 0.044,1.164 v 0 c 0.015,0.348 0.044,1.045 -0.304,1.045 v 0 z m 20.279,-0.318 h -10e-4 -0.002 c -0.013,0 -0.026,-10e-4 -0.037,-0.004 v 0 c -0.319,-0.085 0.984,-1.151 2.277,-1.964 v 0 c 0.74,-0.467 0.997,-0.543 1.072,-0.553 v 0 c 0.214,-0.03 0,0.216 -0.103,0.334 v 0 c -0.94,0.991 -2.773,2.187 -3.205,2.187 v 0 z m -15.415,-0.06 h -0.004 c -0.838,0 -3.666,-1.561 -3.959,-1.887 v 0 c 0.645,0.268 1.282,0.56 1.933,0.812 v 0 c 1.548,0.597 2.254,0.871 2.192,1.041 v 0 c -0.037,0.023 -0.092,0.034 -0.159,0.034 v 0 z m 3.6,-0.48 c -0.475,-0.389 1.572,-0.604 1.988,-0.643 v 0 c 0.555,-0.051 2.367,-0.177 2.362,0.387 v 0 c -0.172,0.482 -1.182,0.685 -2.2,0.685 v 0 c -0.91,0 -1.824,-0.162 -2.15,-0.429 m -10.096,0.121 c -0.162,-0.118 -0.121,-0.278 0.125,-0.508 v 0 c 0.226,-0.209 1.551,-1.055 1.56,-1.062 v 0 c 0.004,0.003 0.009,0.006 0.012,0.007 v 0 c -0.027,0.059 -0.498,0.793 -0.588,0.92 v 0 c -0.376,0.537 -0.679,0.69 -0.904,0.69 v 0 c -0.078,0 -0.147,-0.019 -0.205,-0.047 m 18.037,-0.365 c -0.222,-10e-4 -0.42,-0.032 -0.577,-0.098 v 0 c -0.824,-0.34 0.427,-1.217 1.687,-1.696 v 0 c 1.038,-0.395 2.131,-0.527 2.08,0.117 v 0 c -0.255,0.895 -2.034,1.677 -3.18,1.677 v 0 z m -21.195,-0.034 h -10e-4 -10e-4 -0.002 -0.002 -0.002 -10e-4 l -0.015,-0.001 c -0.533,-0.016 -1.234,-0.466 -1.673,-0.846 v 0 c -0.088,-0.082 -0.237,-0.222 -0.245,-0.306 v 0 c -0.02,-0.251 1.99,0.419 2.288,0.762 v 0 c 0.19,0.217 -0.029,0.391 -0.344,0.391 v 0 z m 5.744,-1.241 c 0.68,0.14 1.352,0.305 2.034,0.431 v 0 c 1.572,0.288 2.437,0.448 2.481,0.651 v 0 c -0.042,0.065 -0.161,0.092 -0.338,0.092 v 0 c -0.991,0 -3.759,-0.883 -4.177,-1.174 m -3.379,0.823 c -0.307,0 -0.455,-0.088 -0.497,-0.118 v 0 c -0.007,-0.009 -0.021,-0.021 -0.026,-0.031 v 0 c -0.056,-0.095 0.086,-0.191 0.399,-0.27 v 0 c 0.019,-0.004 2.365,-0.451 2.45,-0.443 v 0 c -0.058,0.038 -0.757,0.405 -1.149,0.571 v 0 c -0.523,0.221 -0.902,0.288 -1.165,0.291 v 0 z m 6.775,-0.543 c -1.193,0 -3.027,-0.243 -3.406,-0.409 v 0 c 0.286,-0.002 0.57,0.002 0.855,0.007 v 0 c 0.36,0.005 0.72,0.011 1.079,0.003 v 0 c 1.271,-0.024 2.37,-0.046 2.52,0.176 v 0 c -0.012,0.159 -0.436,0.221 -1.02,0.223 v 0 z m 5.154,-0.171 c -0.459,-0.002 -0.853,-0.057 -1.083,-0.171 v 0 c -0.717,-0.353 1.537,-1.013 1.632,-1.041 v 0 c 1.104,-0.321 2.365,-0.486 2.598,0.007 v 0 c 0.098,0.751 -1.778,1.205 -3.125,1.205 v 0 z m -16.758,-0.115 c -0.007,-0.005 -0.665,-0.58 -1.234,-1.146 v 0 c 0.378,0.359 0.882,0.837 1.275,1.181 v 0 c -0.014,-0.011 -0.029,-0.024 -0.041,-0.035 m 3.403,-0.336 c -0.018,-0.04 -0.062,-0.149 0.494,-0.122 v 0 c 0.026,10e-4 3.068,0.272 3.14,0.292 v 0 c -0.073,0.016 -0.938,0.136 -1.575,0.168 v 0 c -0.143,0.008 -0.278,0.011 -0.403,0.011 v 0 c -1.045,0 -1.537,-0.219 -1.656,-0.349 m 4.725,0.077 c 0.548,-0.154 1.107,-0.266 1.657,-0.416 v 0 c 0.824,-0.226 2.069,-0.567 2.329,-0.338 v 0 c 0.153,0.453 -2.585,0.777 -3.638,0.777 v 0 c -0.161,0 -0.282,-0.007 -0.348,-0.023 m -3.002,-0.302 c -1.45,-0.281 -2.143,-0.67 -2.238,-0.849 v 0 c 0.004,-0.067 0.087,-0.107 0.66,0.048 v 0 c 0.028,0.008 3.381,1.04 3.422,1.06 v 0 c -0.08,-0.003 -1.058,-0.108 -1.844,-0.259 m 2.882,0.171 c 0.39,-0.298 0.817,-0.542 1.223,-0.819 v 0 c 0.385,-0.263 1.559,-1.064 1.934,-0.846 v 0 c 0.193,0.265 -0.724,0.752 -0.762,0.772 v 0 c -0.883,0.467 -2.32,0.893 -2.394,0.893 v 0 z m -2.978,-0.719 c -1.472,-0.595 -2.164,-1.131 -2.186,-1.323 v 0 c 0.04,-0.054 0.159,-0.064 0.76,0.228 v 0 c 0.03,0.013 3.315,1.74 3.36,1.775 v 0 c -0.09,-0.025 -1.107,-0.345 -1.934,-0.68 m 2.812,0.603 c 0.016,-0.038 0.649,-1.153 0.655,-1.164 v 0 c 0.81,-1.381 1.246,-1.354 1.361,-1.313 v 0 c 0.509,0.433 -1.552,2.186 -2.005,2.483 v 0 c -0.004,-0.002 -0.008,-0.004 -0.011,-0.006 m -2.644,-1.09 c -1.393,-0.894 -1.948,-1.547 -1.885,-1.707 v 0 c 0.045,-0.021 0.141,-0.065 0.78,0.41 v 0 c 0.025,0.019 2.885,2.301 2.927,2.352 v 0 c -0.088,-0.041 -1.056,-0.564 -1.822,-1.055 m -4.72,0.91 c -0.767,-0.256 -1.51,-0.858 -1.848,-1.321 v 0 c -0.05,-0.078 -0.1,-0.159 -0.087,-0.217 v 0 c 0.06,-0.267 2.671,1.098 2.822,1.474 v 0 c 0.047,0.118 -0.07,0.18 -0.277,0.18 v 0 c -0.161,0 -0.377,-0.037 -0.61,-0.116 m 7.275,-1.283 c 0.127,-1.214 0.447,-1.711 0.709,-1.664 v 0 c 0.27,0.157 0.131,0.783 0.082,0.972 v 0 c -0.168,0.641 -0.816,2.035 -0.879,2.074 v 0 c -0.005,-0.09 0.055,-1.054 0.088,-1.382 m -2.141,0.024 c -1.173,-1.128 -1.525,-1.82 -1.394,-1.932 v 0 c 0.128,-0.01 0.367,0.178 0.708,0.559 v 0 c 0.02,0.024 2.171,2.617 2.206,2.704 v 0 c -0.068,-0.052 -0.895,-0.732 -1.52,-1.331 m 1.335,-0.19 c -0.368,-1.239 -0.304,-1.901 -0.051,-1.914 v 0 c 0.607,0.222 0.587,3.385 0.573,3.411 v 0 c -0.04,-0.084 -0.36,-0.947 -0.522,-1.497 m -0.733,0.009 c -0.836,-1.275 -0.951,-1.939 -0.768,-2.002 v 0 c 0.071,0.011 0.239,0.038 0.642,0.801 v 0 c 0.012,0.023 1.198,2.592 1.198,2.68 v 0 c -0.063,-0.074 -0.665,-0.857 -1.072,-1.479 m 23.278,1.045 c -0.729,-0.157 0.198,-1.552 1.422,-2.478 v 0 c 0.714,-0.539 1.737,-1.034 1.638,-0.181 v 0 c -0.298,1.203 -2.082,2.672 -2.934,2.672 v 0 c -0.045,0 -0.088,-0.005 -0.126,-0.013 m 3.582,-1.281 c -0.272,0.322 -0.516,0.602 -0.693,0.788 v 0 c 0.271,-0.308 0.499,-0.566 0.693,-0.788 m -10.084,0.68 c -0.859,-0.288 -0.107,-1.302 1.139,-2.013 v 0 c 0.991,-0.568 2.19,-0.856 2.483,-0.148 v 0 c 0.201,1.081 -1.757,2.238 -3.087,2.238 v 0 c -0.194,0 -0.376,-0.024 -0.535,-0.077 m -8.091,-0.042 c -0.734,-0.211 0.589,-1.084 1.158,-1.403 v 0 c 0.996,-0.554 2.188,-0.904 2.612,-0.438 v 0 c 0.465,0.889 -2.041,1.89 -3.344,1.89 v 0 c -0.164,0 -0.308,-0.016 -0.426,-0.049 m -15.629,-0.991 c -0.837,-0.46 -1.639,-1.235 -1.824,-1.765 v 0 c -0.009,-0.053 -0.021,-0.118 0.01,-0.157 v 0 c 0.26,-0.318 3.017,1.887 3.093,2.191 v 0 c 0.021,0.083 -0.041,0.122 -0.161,0.122 v 0 c -0.229,0 -0.668,-0.144 -1.118,-0.391 m 35.079,-1.241 c 0.277,-0.366 0.412,-0.563 0.493,-0.681 v 0 c -0.661,0.972 -0.792,1.158 -1.768,2.275 v 0 c 0.419,-0.499 0.9,-1.098 1.275,-1.594 m -37.284,0.922 c -0.029,-0.035 -0.068,-0.084 -0.096,-0.12 v 0 l -0.599,-0.785 c -0.34,-0.476 -0.766,-1.134 -1.087,-1.624 v 0 c 0,-0.002 0,-0.004 -10e-4,-0.005 v 0 c 2.063,2.628 2.063,2.628 2.102,2.807 v 0 l -0.014,0.019 c -0.023,-0.007 -0.083,-0.026 -0.305,-0.292 m 16.506,-0.315 c -0.908,0 -0.046,-1.166 0.488,-1.7 v 0 c 0.743,-0.742 1.816,-1.344 2.427,-0.914 v 0 c 0.828,0.906 -1.629,2.607 -2.909,2.614 v 0 z m -13.217,-0.593 c -0.265,0 -0.895,-0.331 -1.433,-0.746 v 0 c -0.927,-0.713 -1.62,-1.653 -1.576,-2.14 v 0 c 0.006,-0.017 0.011,-0.041 0.021,-0.057 v 0 c 0.343,-0.563 3.061,2.341 3.116,2.822 v 0 c 0.01,0.082 -0.037,0.12 -0.123,0.121 v 0 z m 21.58,-0.714 c -0.042,0 -0.087,-0.002 -0.13,-0.004 v 0 c -1.225,-0.085 -0.828,-1.328 0.315,-2.3 v 0 c 0.727,-0.616 2.042,-1.259 2.686,-0.496 v 0 c 0.666,1.159 -1.306,2.8 -2.857,2.8 v 0 z m -10.487,-0.155 h -0.005 c -0.67,0 -0.372,-1.198 -0.026,-1.897 v 0 c 0.466,-0.944 1.323,-1.724 2.062,-1.388 v 0 c 1.076,0.762 -0.663,2.889 -1.783,3.24 v 0 c -0.094,0.029 -0.175,0.044 -0.246,0.045 v 0 z m 18.237,-0.039 h -0.001 -10e-4 -10e-4 v 0 h -0.001 -10e-4 -0.001 -10e-4 -0.002 -0.002 -0.002 c -1.201,0 -0.782,-1.648 0.423,-2.788 v 0 c 0.675,-0.638 1.81,-1.246 2.167,-0.307 v 0 c 0.282,1.306 -1.368,3.069 -2.561,3.095 v 0 z m 4.819,-0.196 h -0.002 c -0.42,0 0.184,-1.638 1.137,-3.023 v 0 c 0.388,-0.565 0.632,-0.783 0.721,-0.851 v 0 c 0.409,-0.316 0.337,0.165 0.314,0.322 v 0 c -0.296,1.356 -1.584,3.394 -2.113,3.543 v 0 c -0.021,0.005 -0.039,0.009 -0.056,0.009 v 0 z m -34.975,-1.399 c -0.891,-0.947 -1.377,-1.995 -1.105,-2.387 v 0 c 0.671,-0.492 2.836,2.788 2.812,3.383 v 0 c -0.004,0.088 -0.051,0.127 -0.131,0.127 v 0 c -0.29,0 -1.003,-0.515 -1.576,-1.123 m -4.403,0.148 c -0.508,-0.636 -1.083,-1.732 -1.309,-2.495 v 0 c -0.023,-0.095 -0.065,-0.271 -0.018,-0.31 v 0 c 0.218,-0.179 2.101,2.861 2.015,3.254 v 0 c -0.011,0.046 -0.038,0.068 -0.079,0.068 v 0 c -0.117,0 -0.347,-0.19 -0.609,-0.517 m 14.097,0.454 c -0.526,0 -0.614,-1.142 -0.484,-1.945 v 0 c 0.169,-1.054 0.749,-2.013 1.529,-1.806 v 0 c 1.101,0.526 0.361,2.819 -0.658,3.589 v 0 c -0.148,0.111 -0.274,0.161 -0.384,0.162 v 0 z m -6.688,-0.385 c -0.317,0 -1.043,-0.758 -1.511,-1.476 v 0 c -0.735,-1.122 -0.962,-2.199 -0.519,-2.449 v 0 c 0.995,-0.22 2.294,3.219 2.178,3.783 v 0 c -0.019,0.097 -0.07,0.141 -0.144,0.142 v 0 z m 3.291,-2.159 c -0.142,-1.078 0.102,-2.203 0.84,-2.162 v 0 c 1.169,0.315 0.988,3.06 0.36,3.876 v 0 c -0.096,0.126 -0.194,0.181 -0.289,0.181 v 0 c -0.428,0 -0.807,-1.12 -0.911,-1.895 m -1.362,1.763 c -0.35,0 -0.948,-0.902 -1.277,-1.732 v 0 c -0.423,-1.072 -0.486,-2.254 0.145,-2.375 v 0 c 1.141,0.064 1.627,3.272 1.333,3.947 v 0 c -0.048,0.109 -0.115,0.159 -0.196,0.16 v 0 z m 14.725,-0.986 h -0.004 c -1.138,-10e-4 -1.164,-1.282 -0.279,-2.44 v 0 c 0.691,-0.907 1.877,-1.532 2.713,-0.907 v 0 c 1.027,1.058 -0.504,3.055 -2.14,3.321 v 0 c -0.102,0.017 -0.198,0.025 -0.286,0.026 v 0 z m -24.626,-1.861 c -0.529,-0.764 -1.007,-2.001 -0.896,-2.749 v 0 c 0.021,-0.066 0.047,-0.156 0.105,-0.199 v 0 c 0.452,-0.337 2.085,2.731 1.898,3.568 v 0 c -0.027,0.122 -0.094,0.178 -0.188,0.178 v 0 c -0.216,0 -0.571,-0.294 -0.919,-0.798 m 33.288,0.6 h -0.004 -10e-4 -0.003 c -1.298,0 -1.335,-1.706 -0.324,-2.949 v 0 c 0.719,-0.886 1.855,-1.374 2.54,-0.534 v 0 c 0.791,1.315 -0.601,3.315 -2.035,3.472 v 0 c -0.06,0.007 -0.115,0.01 -0.17,0.011 v 0 z m 6.753,-0.518 h -0.005 c -0.797,-10e-4 -0.778,-1.796 0.115,-3.268 v 0 c 0.444,-0.731 1.284,-1.513 1.646,-0.501 v 0 c 0.324,1.365 -0.68,3.454 -1.557,3.734 v 0 c -0.071,0.023 -0.136,0.034 -0.198,0.035 v 0 z m -19.95,-3.33 c 0.456,-1.039 1.51,-1.867 2.572,-1.354 v 0 c 1.317,0.885 0.441,3.011 -1.103,3.678 v 0 c -0.254,0.111 -0.48,0.16 -0.678,0.16 v 0 c -1.027,0 -1.291,-1.335 -0.791,-2.484 m -21.611,2.338 10e-4,0.003 z m -0.003,-0.006 c 0,-10e-4 -0.001,-0.003 -0.001,-0.006 v 0 l 0.004,0.012 z m -0.051,-0.157 c -0.374,-1.174 -0.432,-1.38 -0.738,-2.938 v 0 c 0.274,1.256 0.756,2.978 0.788,3.089 v 0 z m 45.41,-3.226 c 0.262,-1.072 0.283,-1.1 0.305,-1.13 v 0 c -0.001,0.013 -0.003,0.031 -0.004,0.044 v 0 l -0.04,0.3 c -0.215,1.459 -0.241,1.553 -0.908,3.942 v 0 c -0.027,0.08 -0.027,0.08 -0.06,0.114 v 0 c 0,-0.298 0.462,-2.27 0.707,-3.27 m -42.86,1.474 c -0.512,-0.939 -0.763,-2.262 -0.296,-2.851 v 0 c 0.022,-0.018 0.05,-0.046 0.075,-0.062 v 0 c 0.8,-0.52 2.05,2.566 1.767,3.706 v 0 c -0.06,0.243 -0.186,0.35 -0.347,0.35 v 0 c -0.339,0 -0.833,-0.473 -1.199,-1.143 m 14.811,-2.158 c 0.222,-1.119 1.066,-2.132 2.189,-1.805 v 0 c 1.463,0.658 1.061,2.937 -0.298,3.87 v 0 c -0.294,0.202 -0.562,0.29 -0.8,0.29 v 0 c -0.873,0 -1.322,-1.201 -1.091,-2.355 m -12.409,0.134 c -0.407,-1.068 -0.39,-2.391 0.34,-2.758 v 0 c 1.303,-0.348 2.017,2.871 1.452,3.963 v 0 c -0.111,0.217 -0.264,0.312 -0.435,0.312 v 0 c -0.449,0 -1.029,-0.658 -1.357,-1.517 m 26.414,1.514 c -1.33,0 -1.744,-1.642 -0.956,-2.975 v 0 c 0.586,-0.991 1.756,-1.625 2.769,-0.846 v 0 c 1.234,1.232 0.172,3.434 -1.414,3.776 v 0 c -0.137,0.029 -0.265,0.044 -0.386,0.045 v 0 z M 301.5,448.974 c -0.02,-1.167 0.578,-2.322 1.614,-2.237 v 0 c 1.563,0.378 1.395,2.961 0.368,4.007 v 0 c -0.248,0.252 -0.49,0.361 -0.715,0.361 v 0 c -0.706,0 -1.249,-1.067 -1.267,-2.131 m -13.553,1.23 c 0.051,0.263 0.097,0.497 0.138,0.706 v 0 c -0.057,-0.262 -0.105,-0.503 -0.138,-0.706 m 9.31,-1.181 c -0.236,-1.143 0.067,-2.409 0.985,-2.551 v 0 c 1.444,0.035 1.746,2.837 0.987,4.004 v 0 c -0.178,0.276 -0.389,0.398 -0.605,0.398 v 0 c -0.555,0 -1.15,-0.804 -1.367,-1.851 m 31.191,1.353 h -0.005 c -1.072,-10e-4 -1.577,-1.84 -0.792,-3.346 v 0 c 0.43,-0.825 1.382,-1.55 2.153,-0.578 v 0 c 0.851,1.368 0.07,3.545 -1.062,3.879 v 0 c -0.1,0.029 -0.197,0.044 -0.289,0.045 v 0 z m -40.411,-1.021 c -0.201,-0.838 -0.309,-2.238 -0.143,-3.131 v 0 c 0.028,-0.111 0.075,-0.297 0.157,-0.315 v 0 c 0.434,-0.103 0.86,3.665 0.475,4.198 v 0 c -0.028,0.038 -0.058,0.057 -0.09,0.057 v 0 c -0.126,0 -0.276,-0.296 -0.399,-0.809 m 45.572,0.055 h -0.002 v 0 c -0.47,0 -0.656,-1.867 -0.306,-3.423 v 0 c 0.069,-0.305 0.163,-0.588 0.252,-0.756 v 0 c 0.156,-0.296 0.391,-0.507 0.62,0.185 v 0 c 0.386,1.471 0.036,3.73 -0.476,3.972 v 0 c -0.03,0.013 -0.058,0.022 -0.086,0.022 v 0 z m -19.824,-4.217 c 0.359,-0.923 1.482,-1.915 2.857,-1.229 v 0 c 1.539,1.005 0.99,3.219 -0.531,3.904 v 0 c -0.297,0.133 -0.576,0.194 -0.836,0.194 v 0 c -1.281,0 -2.031,-1.476 -1.49,-2.869 m -24.496,0.541 c -0.202,-0.971 -0.061,-2.389 0.526,-3.082 v 0 c 0.07,-0.063 0.156,-0.14 0.259,-0.163 v 0 c 0.897,-0.211 1.044,2.91 0.414,3.974 v 0 c -0.143,0.239 -0.305,0.353 -0.466,0.353 v 0 c -0.298,0 -0.589,-0.39 -0.733,-1.082 m 35.246,0.105 c -1.259,0 -2.191,-1.706 -1.52,-3.266 v 0 c 0.372,-0.859 1.413,-1.662 2.569,-0.753 v 0 c 1.242,1.213 0.823,3.312 -0.41,3.874 v 0 c -0.215,0.098 -0.426,0.143 -0.63,0.145 v 0 z m -16.267,-2.872 c 0.265,-1.122 1.283,-2.089 2.654,-1.673 v 0 c 1.711,0.745 1.487,3.002 0.051,3.912 v 0 c -0.368,0.232 -0.725,0.334 -1.056,0.334 v 0 c -1.149,0 -1.964,-1.235 -1.649,-2.573 m 22.107,-1.731 c 0.161,-0.718 0.703,-1.482 1.469,-0.479 v 0 c 0.845,1.308 0.747,3.296 0.061,3.772 v 0 c -0.108,0.075 -0.218,0.109 -0.327,0.109 v 0 c -0.801,0 -1.547,-1.876 -1.203,-3.402 m -38.007,1.904 c -0.142,-1.065 0.252,-2.419 1.156,-2.843 v 0 c 0.039,-0.012 0.091,-0.03 0.132,-0.039 v 0 c 1.193,-0.245 1.584,2.398 0.565,3.822 v 0 c -0.254,0.356 -0.53,0.512 -0.789,0.512 v 0 c -0.505,0 -0.95,-0.592 -1.064,-1.452 m -4.577,1.012 0.102,-0.827 c 0.192,-1.073 0.51,-2.493 0.784,-3.548 v 0 c 0.002,0.026 -0.815,4.271 -0.888,4.404 v 0 c -10e-4,-0.009 0.002,-0.021 0.002,-0.029 m 14.476,-2.419 c 0.089,-0.971 0.84,-2.277 2.237,-2.141 v 0 c 1.705,0.387 1.698,2.78 0.369,3.891 v 0 c -0.366,0.306 -0.734,0.439 -1.074,0.439 v 0 c -0.926,0 -1.643,-0.989 -1.532,-2.189 m 31.444,-1.262 c -0.133,-0.828 -0.113,-0.878 -0.094,-0.925 v 0 c 0.022,0.03 0.041,0.058 0.125,0.342 v 0 c 0.233,0.857 0.49,2.016 0.668,2.887 v 0 c 0.124,0.787 0.079,0.822 0.046,0.849 v 0 c -0.167,-0.164 -0.526,-1.794 -0.745,-3.153 m -36.882,1.326 c -0.029,-0.949 0.489,-2.362 1.732,-2.528 v 0 c 1.703,0.01 1.674,2.618 0.622,3.803 v 0 c -0.335,0.378 -0.689,0.543 -1.017,0.543 v 0 c -0.711,0 -1.305,-0.768 -1.337,-1.818 m 22.144,-0.056 c -1.372,0 -2.601,-1.506 -2.086,-3.013 v 0 c 0.304,-0.884 1.398,-1.789 2.885,-1.031 v 0 c 1.714,1.098 1.302,3.186 0.085,3.823 v 0 c -0.287,0.15 -0.582,0.219 -0.871,0.221 v 0 z m -29.438,-1.437 c -0.217,0 -0.302,-0.358 -0.207,-0.968 v 0 c 0.123,-0.78 0.624,-2.246 1.351,-3.061 v 0 c 0.095,-0.09 0.251,-0.239 0.381,-0.213 v 0 c 0.655,0.123 -0.459,3.597 -1.34,4.176 v 0 c -0.069,0.044 -0.13,0.065 -0.183,0.066 v 0 z m 38.086,-0.356 c -1.112,0 -2.282,-1.748 -1.927,-3.214 v 0 c 0.21,-0.867 0.995,-1.334 2.038,-0.491 v 0 c 1.271,1.207 1.287,3.103 0.371,3.585 v 0 c -0.153,0.081 -0.312,0.119 -0.474,0.12 v 0 z m 3.436,-3.788 c -0.035,-0.256 -0.028,-0.411 -0.016,-0.495 v 0 c 0.033,-0.229 0.164,-0.504 0.683,0.201 v 0 c 0.807,1.202 1.258,2.878 1.007,3.252 v 0 c -0.04,0.058 -0.088,0.084 -0.143,0.084 v 0 c -0.446,0 -1.356,-1.721 -1.531,-3.042 m -20.377,0.064 c 0.247,-0.889 1.309,-1.917 2.889,-1.421 v 0 c 1.868,0.794 1.724,2.977 0.222,3.748 v 0 c -0.345,0.177 -0.702,0.257 -1.045,0.257 v 0 c -1.324,0 -2.455,-1.192 -2.066,-2.584 m -17.888,0.194 c 0.129,-0.824 0.807,-2.207 1.909,-2.698 v 0 c 0.111,-0.035 0.251,-0.078 0.391,-0.069 v 0 c 1.115,0.082 0.481,2.701 -0.905,3.737 v 0 c -0.282,0.211 -0.541,0.31 -0.76,0.31 v 0 c -0.48,0 -0.76,-0.475 -0.635,-1.28 m 11.135,-1.583 c 0.196,-0.879 1.157,-2.042 2.68,-1.878 v 0 c 0.061,0.012 0.141,0.027 0.198,0.043 v 0 c 1.583,0.434 1.575,2.554 -0.012,3.543 v 0 c -0.417,0.259 -0.843,0.377 -1.238,0.377 v 0 c -1.071,0 -1.899,-0.865 -1.628,-2.085 m -6.114,0.073 c 0.154,-0.858 0.986,-2.138 2.35,-2.303 v 0 c 0.102,0 0.239,0 0.341,0.019 v 0 c 1.388,0.255 1.119,2.47 -0.432,3.536 v 0 c -0.4,0.274 -0.792,0.401 -1.137,0.401 v 0 c -0.775,0 -1.306,-0.638 -1.122,-1.653 m 21.691,-2.057 c 0.233,-0.833 1.209,-1.335 2.565,-0.626 v 0 c 1.559,0.976 1.706,2.627 0.729,3.246 v 0 c -0.253,0.161 -0.538,0.232 -0.829,0.232 v 0 c -1.334,0 -2.841,-1.496 -2.465,-2.852 m 7.306,-0.774 c -0.019,-0.521 0.318,-0.991 1.321,-0.155 v 0 c 1.109,1.025 1.576,2.429 1.164,2.818 v 0 c -0.08,0.075 -0.178,0.109 -0.29,0.109 v 0 c -0.769,0 -2.156,-1.625 -2.195,-2.772 m 2.973,0.14 c -0.101,-0.149 -0.188,-0.27 -0.253,-0.359 v 0 l 0.65,0.849 c 0.38,0.537 0.857,1.276 1.212,1.83 v 0 c 0.042,0.073 0.042,0.073 0.044,0.101 v 0 c -0.02,-0.017 -0.02,-0.017 -1.653,-2.421 m -38.475,1.988 c -0.012,-0.024 -0.053,-0.097 0.364,-0.739 v 0 c 0.096,-0.148 0.192,-0.286 0.281,-0.415 v 0 c 0.377,-0.531 0.925,-1.204 1.326,-1.718 v 0 c 0.224,-0.263 0.321,-0.364 0.441,-0.494 v 0 c 0.171,-0.171 0.23,-0.221 0.299,-0.258 v 0 c 0.009,0.004 0.022,0.01 0.03,0.014 v 0 c -0.049,0.461 -2.44,3.61 -2.738,3.61 v 0 c -10e-4,0 -0.002,0 -0.003,0 m 21.928,-3.883 c 0.214,-0.635 1.163,-1.447 2.789,-0.918 v 0 c 1.789,0.738 1.854,2.367 0.594,2.997 v 0 c -0.344,0.172 -0.713,0.25 -1.078,0.25 v 0 c -1.391,0 -2.714,-1.118 -2.305,-2.329 m 16.291,1.534 -0.043,-0.058 -10e-4,-10e-4 10e-4,10e-4 0.043,0.058 0.003,0.002 z m -34.245,-0.383 h -0.004 c -0.389,0 -0.446,-0.37 -0.107,-0.955 v 0 c 0.36,-0.62 1.364,-1.704 2.469,-2.168 v 0 c 0.162,-0.055 0.433,-0.147 0.593,-0.043 v 0 c 0.608,0.401 -1.434,2.767 -2.697,3.126 v 0 c -0.095,0.026 -0.179,0.04 -0.251,0.04 v 0 z m 31.093,-2.533 c -0.086,-0.142 -0.105,-0.209 -0.11,-0.234 v 0 c -0.033,-0.201 0.41,0.184 0.624,0.369 v 0 c 1.098,0.976 1.714,1.751 1.676,1.939 v 0 c -0.006,0.028 -0.026,0.042 -0.057,0.042 v 0 c -0.292,0 -1.6,-1.219 -2.133,-2.116 m -2.52,1.972 c -1.098,0 -2.821,-1.358 -2.66,-2.359 v 0 c 0.086,-0.541 0.811,-0.776 1.986,-0.142 v 0 c 1.317,0.801 1.746,1.933 1.223,2.336 v 0 c -0.147,0.113 -0.332,0.164 -0.539,0.165 v 0 z m -17.439,-1.992 c 0.255,-0.609 1.247,-1.505 2.826,-1.314 v 0 c 0.111,0.023 0.262,0.054 0.371,0.091 v 0 c 1.372,0.474 1.164,2.006 -0.366,2.688 v 0 c -0.415,0.186 -0.835,0.269 -1.222,0.269 v 0 c -1.157,0 -2.021,-0.747 -1.609,-1.734 m -6.176,0.073 c 0.317,-0.634 1.372,-1.589 2.722,-1.729 v 0 c 0.175,-0.003 0.467,-0.011 0.705,0.12 v 0 c 0.915,0.501 -0.139,2.127 -1.763,2.717 v 0 c -0.324,0.118 -0.621,0.173 -0.876,0.173 v 0 c -0.781,0 -1.172,-0.513 -0.788,-1.281 m 15.266,-2.734 c 0.169,-0.378 0.966,-0.798 2.394,-0.313 v 0 c 0.051,0.02 0.122,0.047 0.174,0.07 v 0 c 1.238,0.532 1.61,1.519 0.713,1.885 v 0 c -0.23,0.094 -0.491,0.136 -0.764,0.136 v 0 c -1.308,0 -2.881,-0.96 -2.517,-1.778 m 8.887,1.569 c -0.62,0 -2.428,-1.16 -2.524,-1.716 v 0 c -0.037,-0.21 0.27,-0.261 1.252,0.29 v 0 c 1.101,0.646 1.57,1.18 1.453,1.355 v 0 c -0.032,0.048 -0.093,0.07 -0.176,0.071 v 0 z m -25.69,-0.913 c -0.16,-0.011 -10e-4,-0.194 0.413,-0.478 v 0 c 0.669,-0.459 1.837,-1.066 2.717,-1.412 v 0 c 0.3,-0.111 0.413,-0.138 0.463,-0.109 v 0 c 0.047,0.274 -3.051,2 -3.579,2 v 0 c -0.004,0 -0.009,-10e-4 -0.014,-10e-4 m 10.617,-1.93 c 0.351,-0.422 1.4,-0.779 2.652,-0.611 v 0 c 0.204,0.039 0.628,0.119 0.897,0.35 v 0 c 0.623,0.533 -0.202,1.257 -1.576,1.384 v 0 c -0.134,0.011 -0.266,0.017 -0.393,0.017 v 0 c -1.232,0 -2.067,-0.554 -1.58,-1.14 m -5.201,0.771 h -0.003 -0.002 -0.003 -0.002 -0.002 c -0.047,0 -0.091,-0.002 -0.137,-0.005 v 0 c -0.591,-0.036 -0.699,-0.33 -0.255,-0.698 v 0 c 0.481,-0.401 1.615,-0.879 2.769,-0.977 v 0 c 0.204,-0.01 0.626,-0.026 0.753,0.152 v 0 c 0.319,0.444 -1.726,1.528 -3.116,1.528 v 0 z m 15.746,-0.313 c -1.11,0 -2.837,-0.873 -2.56,-1.171 v 0 c 0.101,-0.109 0.591,-0.177 1.795,0.253 v 0 c 0.55,0.21 0.917,0.403 1.089,0.575 v 0 c 0.205,0.202 0.09,0.336 -0.29,0.343 v 0 z m -7.607,-1.961 c -0.152,-0.092 -0.124,-0.177 0.082,-0.232 v 0 c 0.291,-0.079 1.054,-0.104 2.25,0.08 v 0 c 0.226,0.038 0.756,0.128 0.792,0.242 v 0 c 0.04,0.126 -0.554,0.209 -1.25,0.209 v 0 c -0.71,0 -1.527,-0.086 -1.874,-0.299 m -4.607,-0.041 h -0.007 -0.003 c -0.098,-10e-4 -0.17,-0.006 -0.214,-0.019 v 0 c 0,-0.007 -0.001,-0.015 -0.001,-0.022 v 0 c 0.046,-0.025 0.113,-0.049 0.417,-0.097 v 0 c 0.005,-10e-4 0.01,-10e-4 0.015,-0.002 v 0 c 0.585,-0.076 1.369,-0.144 1.958,-0.196 v 0 l 1.076,-0.039 c -0.686,0.109 -2.54,0.375 -3.238,0.375 v 0 z"
               style="fill:url(#linearGradient27040);fill-opacity:1;fill-rule:nonzero;stroke:none"
               id="path32" /></g></g></g></g></g></svg>
