<?xml version="1.0" encoding="UTF-8" standalone="no"?>
<!-- Generator: Adobe Illustrator 19.0.0, SVG Export Plug-In . SVG Version: 6.00 Build 0)  -->

<svg
   version="1.1"
   id="Layer_1"
   x="0px"
   y="0px"
   viewBox="0 0 64.000003 80.000004"
   xml:space="preserve"
   sodipodi:docname="stars-svgrepo-com.svg"
   width="64"
   height="80"
   inkscape:version="1.1.1 (3bf5ae0d25, 2021-09-20)"
   xmlns:inkscape="http://www.inkscape.org/namespaces/inkscape"
   xmlns:sodipodi="http://sodipodi.sourceforge.net/DTD/sodipodi-0.dtd"
   xmlns="http://www.w3.org/2000/svg"
   xmlns:svg="http://www.w3.org/2000/svg"><defs
   id="defs2278" /><sodipodi:namedview
   id="namedview2276"
   pagecolor="#ffffff"
   bordercolor="#666666"
   borderopacity="1.0"
   inkscape:pageshadow="2"
   inkscape:pageopacity="0.0"
   inkscape:pagecheckerboard="0"
   showgrid="false"
   inkscape:zoom="4.82268"
   inkscape:cx="56.400176"
   inkscape:cy="107.61651"
   inkscape:window-width="2111"
   inkscape:window-height="2054"
   inkscape:window-x="-10"
   inkscape:window-y="0"
   inkscape:window-maximized="0"
   inkscape:current-layer="Layer_1" />
<g
   id="g2243"
   transform="matrix(0.11454585,0,0,0.11454585,3.1103038,11.197094)"
   style="fill:#536d2b;fill-opacity:1">
	<g
   id="g2241"
   style="fill:#536d2b;fill-opacity:1">
		<g
   id="g2239"
   style="fill:#536d2b;fill-opacity:1">
			<path
   d="m 123.901,168 h -15.802 c 0,15.494 -12.605,28.099 -28.099,28.099 v 15.802 c 15.494,0 28.099,12.605 28.099,28.099 h 15.802 c 0,-15.494 12.605,-28.099 28.099,-28.099 v -15.802 c -15.494,0 -28.099,-12.605 -28.099,-28.099 z M 116,214.899 c -2.966,-4.24 -6.659,-7.934 -10.9,-10.899 4.24,-2.966 7.934,-6.659 10.9,-10.899 2.966,4.24 6.659,7.934 10.899,10.899 -4.24,2.966 -7.933,6.658 -10.899,10.899 z"
   id="path2221"
   style="fill:#536d2b;fill-opacity:1" />
			<path
   d="m 144.001,336.098 c -35.344,0 -64.099,-28.754 -64.099,-64.099 H 64.1 c 0,35.344 -28.754,64.099 -64.099,64.099 V 351.9 c 35.344,0 64.099,28.754 64.099,64.099 h 15.802 c 0,-35.344 28.754,-64.099 64.099,-64.099 z m -72,45.271 c -7.862,-16.282 -21.088,-29.506 -37.37,-37.37 16.282,-7.862 29.506,-21.088 37.37,-37.37 7.862,16.282 21.088,29.506 37.37,37.37 -16.282,7.864 -29.508,21.089 -37.37,37.37 z"
   id="path2223"
   style="fill:#536d2b;fill-opacity:1" />
			<path
   d="m 479.901,168 h -15.802 c 0,17.699 -14.399,32.099 -32.099,32.099 v 15.802 c 17.699,0 32.099,14.399 32.099,32.099 h 15.802 c 0,-17.699 14.399,-32.099 32.099,-32.099 v -15.802 c -17.698,0 -32.099,-14.4 -32.099,-32.099 z M 472,221.672 c -3.584,-5.428 -8.244,-10.087 -13.671,-13.671 5.428,-3.584 10.087,-8.244 13.671,-13.671 3.584,5.428 8.244,10.087 13.671,13.671 -5.427,3.584 -10.086,8.243 -13.671,13.671 z"
   id="path2225"
   style="fill:#536d2b;fill-opacity:1" />
			<path
   d="M 240.001,240.098 V 255.9 C 257.7,255.901 272.1,270.3 272.1,288 h 15.802 c 0,-17.699 14.399,-32.099 32.099,-32.099 V 240.099 C 302.302,240.099 287.902,225.7 287.902,208 H 272.1 c -0.001,17.699 -14.4,32.098 -32.099,32.098 z M 280,234.328 c 3.584,5.428 8.244,10.087 13.671,13.671 -5.428,3.584 -10.087,8.244 -13.671,13.671 -3.584,-5.428 -8.244,-10.087 -13.671,-13.671 5.428,-3.583 10.087,-8.243 13.671,-13.671 z"
   id="path2227"
   style="fill:#536d2b;fill-opacity:1" />
			<path
   d="m 32.1,87.947 h 15.802 c 0,-17.699 14.399,-32.099 32.099,-32.099 V 40.046 C 62.302,40.046 47.902,25.647 47.902,7.947 H 32.1 C 32.1,25.645 17.7,40.046 0,40.046 v 15.802 c 17.699,0 32.1,14.4 32.1,32.099 z m 7.901,-53.671 c 3.584,5.428 8.244,10.087 13.671,13.671 C 48.244,51.531 43.585,56.191 40.001,61.618 36.417,56.19 31.757,51.531 26.33,47.947 31.757,44.363 36.416,39.703 40.001,34.276 Z"
   id="path2229"
   style="fill:#536d2b;fill-opacity:1" />
			<path
   d="m 352.099,80.001 h 15.802 C 367.901,62.302 382.3,47.902 400,47.902 V 32.099 C 382.301,32.099 367.901,17.7 367.901,0 h -15.802 c 0,17.699 -14.399,32.099 -32.099,32.099 v 15.802 c 17.699,0 32.099,14.4 32.099,32.1 z m 7.902,-53.672 c 3.584,5.428 8.244,10.087 13.671,13.671 -5.428,3.584 -10.087,8.244 -13.671,13.671 C 356.417,48.243 351.757,43.584 346.33,40 c 5.427,-3.585 10.086,-8.243 13.671,-13.671 z"
   id="path2231"
   style="fill:#536d2b;fill-opacity:1" />
			<path
   d="M 183.902,432 H 168.1 c 0,17.699 -14.399,32.099 -32.099,32.099 v 15.802 C 153.7,479.901 168.1,494.3 168.1,512 h 15.802 c 0,-17.699 14.399,-32.099 32.099,-32.099 V 464.1 c -17.7,-0.002 -32.099,-14.401 -32.099,-32.1 z m -7.901,53.671 c -3.584,-5.428 -8.244,-10.087 -13.671,-13.671 5.428,-3.584 10.087,-8.244 13.671,-13.671 3.584,5.428 8.244,10.087 13.671,13.671 -5.427,3.585 -10.087,8.243 -13.671,13.671 z"
   id="path2233"
   style="fill:#536d2b;fill-opacity:1" />
			<path
   d="M 359.902,288 H 344.1 c 0,57.4 -46.698,104.099 -104.099,104.099 v 15.802 c 57.4,0 104.099,46.698 104.099,104.099 h 15.802 c 0,-57.4 46.698,-104.099 104.099,-104.099 V 392.099 C 406.6,392.099 359.902,345.4 359.902,288 Z M 352,469.181 c -12.171,-31.723 -37.457,-57.01 -69.18,-69.18 31.723,-12.171 57.01,-37.457 69.18,-69.18 12.171,31.723 37.457,57.01 69.18,69.18 -31.722,12.17 -57.008,37.457 -69.18,69.18 z"
   id="path2235"
   style="fill:#536d2b;fill-opacity:1" />
			<path
   d="m 168.1,184 h 15.802 c 0,-44.167 35.932,-80.099 80.098,-80.099 V 88.099 C 219.833,88.099 183.902,52.167 183.902,8 H 168.1 c 0,44.167 -35.932,80.099 -80.099,80.099 v 15.802 c 44.166,0 80.099,35.932 80.099,80.099 z M 176.001,46.116 C 185.69,68.399 203.602,86.311 225.885,96 203.601,105.689 185.69,123.601 176.001,145.884 166.312,123.601 148.4,105.689 126.117,96 148.399,86.311 166.312,68.399 176.001,46.116 Z"
   id="path2237"
   style="fill:#536d2b;fill-opacity:1" />
		</g>
	</g>
</g>
<g
   id="g2245">
</g>
<g
   id="g2247">
</g>
<g
   id="g2249">
</g>
<g
   id="g2251">
</g>
<g
   id="g2253">
</g>
<g
   id="g2255">
</g>
<g
   id="g2257">
</g>
<g
   id="g2259">
</g>
<g
   id="g2261">
</g>
<g
   id="g2263">
</g>
<g
   id="g2265">
</g>
<g
   id="g2267">
</g>
<g
   id="g2269">
</g>
<g
   id="g2271">
</g>
<g
   id="g2273">
</g>
</svg>
